<svg width="24" height="24" viewBox="0 0 24 24" fill="none" xmlns="http://www.w3.org/2000/svg">
<path d="M8.00433 9.53792H10.4902C10.4987 8.72147 10.9856 8.10064 11.8826 8.10064C12.583 8.10064 13.2408 8.47484 13.2408 9.33381C13.2408 10.0822 12.7197 10.4394 11.9167 10.9582C10.8831 11.613 10.3279 12.4805 10.456 13.7902L10.4731 14.1814H12.8735V13.7732C12.8735 12.8632 13.275 12.5996 14.2744 11.9277C15.1031 11.3664 16 10.7116 16 9.19773C16 7.05457 14.189 6 12.0449 6C9.93491 6 7.89328 7.01205 8.00433 9.53792ZM10.0716 16.6052C10.0716 17.4387 10.7294 18 11.7459 18C12.7966 18 13.4458 17.4387 13.4458 16.6052C13.4458 15.7548 12.7881 15.1935 11.7459 15.1935C10.7208 15.1935 10.0716 15.7548 10.0716 16.6052Z" fill="#D9D9D9"/>
</svg>
