<svg width="12" height="12" viewBox="0 0 12 12" fill="none" xmlns="http://www.w3.org/2000/svg">
<g clip-path="url(#clip0)">
<path d="M2.76681 0.993262C2.68296 1.06058 2.66074 1.17899 2.71452 1.27213L4.40077 4.19148L2.54895 3.45946C2.43974 3.40894 2.31025 3.45652 2.25976 3.56575C2.22303 3.64519 2.23738 3.7389 2.29623 3.80368L3.82126 5.59015L0.187323 6.09777C0.0790458 6.11307 -0.00110018 6.20629 -3.80966e-05 6.31563C-0.00159036 6.42285 0.075097 6.51527 0.180787 6.53349L3.88444 7.18708L2.99992 8.24153C2.92209 8.33328 2.93336 8.47077 3.02511 8.54861C3.07124 8.58774 3.13156 8.60593 3.19164 8.59882L4.5816 8.44196L3.48793 10.7578C3.44155 10.8689 3.49395 10.9964 3.60495 11.0429C3.67687 11.0729 3.75933 11.0622 3.82126 11.0149L5.92145 9.20884L6.45739 10.4289C6.50728 10.5384 6.63647 10.5867 6.74598 10.5368C6.7938 10.515 6.83211 10.4767 6.8539 10.4289L7.45956 9.1413L8.53144 10.0324C8.62367 10.1096 8.76109 10.0974 8.83835 10.0052C8.87424 9.96231 8.89227 9.9073 8.88873 9.85153L8.80594 8.51821L11.527 10.1304C11.6306 10.1917 11.7642 10.1575 11.8255 10.054C11.8731 9.97383 11.8643 9.87228 11.8037 9.80142L9.575 7.18708L11.8386 6.57706C11.9365 6.55078 12.0033 6.46048 11.9998 6.3592C12.003 6.2573 11.9351 6.16678 11.8364 6.14134L9.55974 5.56836L11.8037 2.91045C11.8819 2.81897 11.8711 2.68145 11.7796 2.60329C11.7088 2.54272 11.6072 2.53396 11.527 2.58148L8.7798 4.21326L8.9323 2.84945C8.9451 2.72981 8.8585 2.62243 8.73884 2.60963C8.67966 2.60329 8.62046 2.62145 8.57501 2.65991L7.43123 3.63593L6.87133 2.40937C6.82144 2.29986 6.69225 2.25155 6.58274 2.30144C6.53492 2.32323 6.49661 2.36154 6.47482 2.40937L5.96066 3.58582L3.05003 0.993262C2.96849 0.923547 2.84834 0.923547 2.76681 0.993262Z" fill="#F2994A"/>
</g>
<defs>
<clipPath id="clip0">
<rect width="12" height="12" fill="white" transform="translate(0 12) rotate(-90)"/>
</clipPath>
</defs>
</svg>
