<svg width="12" height="12" viewBox="0 0 12 12" fill="none" xmlns="http://www.w3.org/2000/svg">
<path d="M6.02538 4.75051C5.83242 4.28473 5.79644 3.77932 5.92125 3.2888C5.96524 3.11595 6.02798 2.95116 6.1075 2.79614L6.01732 2.82281C5.03306 3.11393 4.13017 3.65243 3.40649 4.37986L0.359024 7.43858C0.142789 7.62927 0.0127576 7.90262 0.00157789 8.19107C-0.00978933 8.48467 0.102828 8.7722 0.310602 8.97995C0.515071 9.18444 0.786876 9.28799 1.05931 9.28799C1.30396 9.28799 1.54909 9.20448 1.74639 9.03562L1.75686 9.02666L4.78558 5.99481C5.18493 5.59484 5.64616 5.25971 6.14754 5.00185C6.10237 4.92118 6.06143 4.83751 6.02538 4.75051Z" fill="#2F80ED"/>
<path d="M10.2021 2.31669C10.3809 2.55794 10.5079 2.82555 10.5842 3.10431C11.049 2.18816 11.8642 0.802276 11.9992 0.489502L10.2021 2.31669Z" fill="#2F80ED"/>
<path d="M9.22169 2.29866L11.6079 0C11.0945 0.222422 8.05432 1.78472 7.14756 2.52218C6.57353 2.98904 6.34853 3.78209 6.64525 4.46138C6.81001 4.83859 6.99782 5.03483 7.27595 5.21968C7.27361 5.2262 7.27099 5.23267 7.26859 5.23918C6.99829 5.97796 6.56725 6.65481 6.00988 7.21136L2.98386 10.2343L2.96515 10.2545C2.60822 10.6714 2.63267 11.3021 3.02077 11.6902C3.21896 11.8884 3.48971 12 3.76906 12C3.78256 12 3.79611 11.9997 3.80961 11.9992C4.09805 11.988 4.37141 11.858 4.56207 11.6418L7.6241 8.59094C8.34949 7.8693 8.88618 6.9692 9.17613 5.98794L9.51356 4.84606C9.59011 4.76797 9.67341 4.66342 9.76125 4.5388C10.1058 3.90109 10.0094 3.08635 9.47123 2.54822L9.22169 2.29866ZM8.5154 4.05523C8.51538 4.05526 8.51536 4.05528 8.51531 4.05531C8.51529 4.05533 8.51526 4.05535 8.51524 4.0554C8.44045 4.13014 8.34103 4.17132 8.23523 4.17132C8.12938 4.17132 8.02989 4.13012 7.95506 4.05521C7.88036 3.98059 7.83913 3.88105 7.83913 3.7752C7.83913 3.66936 7.88034 3.56987 7.95524 3.49503C8.02987 3.42034 8.12941 3.37911 8.23525 3.37911C8.3411 3.37911 8.44059 3.42031 8.51543 3.49522C8.59012 3.56984 8.63135 3.66938 8.63135 3.77523C8.63132 3.881 8.59017 3.98045 8.5154 4.05523Z" fill="#2F80ED"/>
</svg>
