<svg width="12" height="12" viewBox="0 0 12 12" fill="none" xmlns="http://www.w3.org/2000/svg">
<path d="M6.00025 0C3.23881 0 1.00024 2.23857 1.00024 5V8.5V8.52223H1.00078C1.01201 8.9742 1.36301 9.45427 1.79081 9.59687L3.50024 10.1667V11.1667C3.50024 11.625 3.87524 12 4.33358 12H7.66691C8.12525 12 8.50025 11.625 8.50025 11.1667V10.1667L10.2097 9.59687C10.6375 9.45427 10.9885 8.97417 10.9997 8.52223H11.0002V8.5V5C11.0002 2.23857 8.76168 0 6.00025 0ZM7.83358 5.33333C8.66201 5.33333 9.33358 6.00487 9.33358 6.83333C9.33358 7.6618 8.66201 8.33333 7.83358 8.33333C7.00515 8.33333 6.33358 7.6618 6.33358 6.83333C6.33358 6.00487 7.00511 5.33333 7.83358 5.33333ZM4.16691 5.33333C4.99538 5.33333 5.66691 6.00487 5.66691 6.83333C5.66691 7.6618 4.99538 8.33333 4.16691 8.33333C3.33844 8.33333 2.66691 7.6618 2.66691 6.83333C2.66691 6.00487 3.33844 5.33333 4.16691 5.33333ZM6.66691 9.33333C6.66691 9.70153 6.36844 10 6.00025 10C5.63204 10 5.33358 9.70153 5.33358 9.33333C5.33358 8.96513 6.00025 8 6.00025 8C6.00025 8 6.66691 8.96513 6.66691 9.33333Z" fill="#2F80ED"/>
</svg>
