<svg width="12" height="12" viewBox="0 0 12 12" fill="none" xmlns="http://www.w3.org/2000/svg">
<path d="M4.50305 0V1.00103H5.50408V1.50153C5.85443 1.45149 6.15474 1.45149 6.50511 1.50153V1.00103H7.50614V0H4.50305Z" fill="#2F80ED"/>
<path d="M9.40805 3.30331L9.7584 2.95296L10.1588 3.35338L10.8595 2.65265L9.358 1.15112L8.65728 1.85185L9.0577 2.25224L8.60724 2.7027C6.20479 1.25121 3.10162 2.00197 1.7002 4.40442C0.29878 6.80687 1.04952 9.80994 3.40193 11.2614C5.75433 12.7129 8.85748 11.9621 10.2589 9.5597C11.5102 7.5076 11.1598 4.90495 9.40805 3.30331ZM6.00457 10.4606C4.05258 10.4606 2.50101 8.90904 2.50101 6.95705C2.50101 5.00506 4.05258 3.45346 6.00457 3.45346V6.95703H9.50813C9.50816 8.90902 7.95656 10.4606 6.00457 10.4606Z" fill="#2F80ED"/>
</svg>
