<svg width="14" height="14" viewBox="0 0 14 14" fill="none" xmlns="http://www.w3.org/2000/svg">
<path d="M9.79998 7.32812C13.8696 6.55113 13.9991 1.372 14 1.31863C14.0017 1.20138 13.9562 1.0885 13.874 1.00538C13.7917 0.92225 13.6797 0.875 13.5625 0.875H10.5V0.4375C10.5 0.196 10.304 0 10.0625 0H3.93752C3.69602 0 3.50002 0.196 3.50002 0.4375V0.875H0.437546C0.320296 0.875 0.208297 0.92225 0.126048 1.00538C0.0437984 1.0885 -0.00170131 1.20138 4.86777e-05 1.31863C0.000923672 1.372 0.129548 6.552 4.20002 7.32812C4.58064 7.83913 5.08989 8.246 5.68751 8.48925V10.0354C5.68751 10.9358 5.14676 11.7311 4.30502 12.0627L3.77127 12.2815C3.60765 12.3497 3.50002 12.5099 3.50002 12.6875V13.5625C3.50002 13.804 3.69602 14 3.93752 14H10.0625C10.304 14 10.5 13.804 10.5 13.5625V12.6875C10.5 12.5099 10.3924 12.3497 10.2279 12.2824L9.68886 12.0619C8.85236 11.7311 8.31249 10.9366 8.31249 10.0362V8.49012C8.91099 8.246 9.42023 7.83913 9.79998 7.32812ZM10.5 5.25V1.75H13.0926C12.9806 2.80087 12.4818 5.41188 10.3302 6.272C10.43 5.9465 10.5 5.60787 10.5 5.25ZM0.903917 1.75H3.50002V5.25C3.50002 5.60875 3.57002 5.94825 3.67065 6.27462C1.49016 5.41625 1.00804 2.807 0.903917 1.75Z" fill="#7D7F8E"/>
</svg>
